<svg xmlns="http://www.w3.org/2000/svg" viewBox="0 0 160.4 164.36"><defs><style>.cls-1{isolation:isolate;}.cls-2{fill:#617d8c;}.cls-3,.cls-4{fill:#fff;}.cls-4{opacity:0.3;}.cls-4,.cls-7{mix-blend-mode:overlay;}.cls-5{fill:#ef4538;}.cls-6{fill:#273339;}.cls-7{opacity:0.5;}.cls-8{fill:#0dbcd4;}</style></defs><g class="cls-1"><g id="Layer_2" data-name="Layer 2"><g id="Layer_1-2" data-name="Layer 1"><circle class="cls-2" cx="43.09" cy="32.86" r="12.11" transform="translate(3.74 70.11) rotate(-80.76)"/><path class="cls-3" d="M43.09,46.37A13.51,13.51,0,1,1,56.6,32.86,13.52,13.52,0,0,1,43.09,46.37Zm0-24.21a10.7,10.7,0,1,0,10.7,10.7A10.71,10.71,0,0,0,43.09,22.16Z"/><circle class="cls-4" cx="40.36" cy="28.76" r="3.93"/><circle class="cls-2" cx="60.13" cy="20.75" r="12.11"/><path class="cls-3" d="M60.13,34.26A13.51,13.51,0,1,1,73.64,20.75,13.52,13.52,0,0,1,60.13,34.26Zm0-24.21a10.7,10.7,0,1,0,10.7,10.7A10.71,10.71,0,0,0,60.13,10.05Z"/><circle class="cls-2" cx="81.76" cy="13.51" r="12.11"/><path class="cls-3" d="M81.77,27A13.51,13.51,0,1,1,95.28,13.51,13.53,13.53,0,0,1,81.77,27Zm0-24.21a10.7,10.7,0,1,0,10.7,10.7A10.71,10.71,0,0,0,81.77,2.81Z"/><circle class="cls-2" cx="100.13" cy="20.75" r="12.11"/><path class="cls-3" d="M100.13,34.26a13.51,13.51,0,1,1,13.51-13.51A13.52,13.52,0,0,1,100.13,34.26Zm0-24.21a10.7,10.7,0,1,0,10.7,10.7A10.71,10.71,0,0,0,100.13,10.05Z"/><circle class="cls-2" cx="73.85" cy="27.92" r="12.11" transform="translate(34.07 96.11) rotate(-80.45)"/><path class="cls-3" d="M73.85,41.43A13.51,13.51,0,1,1,87.36,27.92,13.52,13.52,0,0,1,73.85,41.43Zm0-24.22a10.71,10.71,0,1,0,10.7,10.71A10.71,10.71,0,0,0,73.85,17.21Z"/><circle class="cls-2" cx="61.92" cy="36.56" r="12.11" transform="translate(16.19 92.05) rotate(-81.06)"/><path class="cls-3" d="M61.92,50.07A13.51,13.51,0,1,1,75.43,36.56,13.52,13.52,0,0,1,61.92,50.07Zm0-24.21a10.7,10.7,0,1,0,10.7,10.7A10.71,10.71,0,0,0,61.92,25.86Z"/><circle class="cls-2" cx="90.71" cy="32.61" r="12.11"/><path class="cls-3" d="M90.71,46.12a13.51,13.51,0,1,1,13.51-13.51A13.52,13.52,0,0,1,90.71,46.12Zm0-24.21a10.7,10.7,0,1,0,10.7,10.7A10.71,10.71,0,0,0,90.71,21.91Z"/><circle class="cls-2" cx="103.7" cy="35.15" r="12.11" transform="translate(45.58 127.95) rotate(-76.67)"/><path class="cls-3" d="M103.7,48.66a13.51,13.51,0,1,1,13.51-13.51A13.52,13.52,0,0,1,103.7,48.66Zm0-24.21a10.7,10.7,0,1,0,10.7,10.7A10.71,10.71,0,0,0,103.7,24.45Z"/><circle class="cls-2" cx="117.88" cy="33.28" r="12.11" transform="translate(-3.73 47.91) rotate(-22.63)"/><path class="cls-3" d="M117.88,46.79a13.51,13.51,0,1,1,13.51-13.51A13.52,13.52,0,0,1,117.88,46.79Zm0-24.21a10.7,10.7,0,1,0,10.7,10.7A10.71,10.71,0,0,0,117.88,22.58Z"/><polygon class="cls-5" points="116.03 164.36 44.94 164.36 31.66 37.48 129.31 37.48 116.03 164.36"/><polygon class="cls-3" points="109.38 164.36 51.59 164.36 40.79 37.48 120.18 37.48 109.38 164.36"/><polygon class="cls-5" points="101.84 164.36 59.13 164.36 51.15 37.48 109.82 37.48 101.84 164.36"/><polygon class="cls-3" points="93.64 164.36 67.33 164.36 62.42 37.48 98.55 37.48 93.64 164.36"/><polygon class="cls-5" points="84.57 164.36 76.4 164.36 74.87 37.48 86.1 37.48 84.57 164.36"/><polygon class="cls-6" points="43.96 154.98 44.94 164.36 51.59 164.36 59.13 164.36 67.33 164.36 76.4 164.36 84.57 164.36 93.64 164.36 101.84 164.36 109.38 164.36 116.03 164.36 117.01 154.98 43.96 154.98"/><polygon class="cls-6" points="128.4 46.16 129.31 37.48 120.18 37.48 109.82 37.48 98.55 37.48 86.1 37.48 31.66 37.48 32.57 46.16 128.4 46.16"/><g class="cls-7"><polygon class="cls-3" points="80.48 37.48 80.48 164.36 84.57 164.36 93.64 164.36 101.84 164.36 109.38 164.36 109.38 164.36 116.03 164.36 116.03 164.36 129.31 37.48 129.31 37.48 80.48 37.48"/></g><path class="cls-4" d="M63.62,31.39a3.93,3.93,0,1,1-3.93-3.93A3.93,3.93,0,0,1,63.62,31.39Z"/><circle class="cls-4" cx="86.95" cy="28.09" r="3.93"/><path class="cls-4" d="M82.74,9.77A3.94,3.94,0,1,1,78.8,5.84,3.93,3.93,0,0,1,82.74,9.77Z"/><path class="cls-4" d="M77.35,22a3.94,3.94,0,1,1-3.93-3.94A3.93,3.93,0,0,1,77.35,22Z"/><path class="cls-4" d="M102.05,16.38a3.94,3.94,0,1,1-3.94-3.94A3.93,3.93,0,0,1,102.05,16.38Z"/><circle class="cls-4" cx="100.3" cy="30.78" r="3.93"/><path class="cls-4" d="M119.3,28.48a3.94,3.94,0,1,1-3.93-3.93A3.93,3.93,0,0,1,119.3,28.48Z"/><path class="cls-4" d="M61.05,16.38a3.94,3.94,0,1,1-3.94-3.94A3.93,3.93,0,0,1,61.05,16.38Z"/><path class="cls-6" d="M157.77,120.29a2.63,2.63,0,0,1,2.63-2.63v-2.48a2.63,2.63,0,1,1,0-5.26v-2.48a2.63,2.63,0,1,1,0-5.25V99.7a2.63,2.63,0,1,1,0-5.25V92a2.63,2.63,0,1,1,0-5.26V84.23a2.63,2.63,0,1,1,0-5.26V76.86a13.14,13.14,0,0,1-13.14-13.14H13.14A13.14,13.14,0,0,1,0,76.86V79A2.63,2.63,0,0,1,2.63,81.6,2.63,2.63,0,0,1,0,84.23v2.48a2.63,2.63,0,0,1,2.63,2.63A2.63,2.63,0,0,1,0,92v2.48a2.63,2.63,0,0,1,2.63,2.63A2.62,2.62,0,0,1,0,99.7v2.49a2.62,2.62,0,0,1,2.63,2.62A2.63,2.63,0,0,1,0,107.44v2.48a2.63,2.63,0,0,1,2.63,2.63A2.63,2.63,0,0,1,0,115.18v2.48a2.63,2.63,0,0,1,2.63,2.63A2.62,2.62,0,0,1,0,122.91V125a13.14,13.14,0,0,1,13.14,13.14H147.26A13.14,13.14,0,0,1,160.4,125v-2.12A2.62,2.62,0,0,1,157.77,120.29Z"/><path class="cls-8" d="M144.72,132.38h-129V131a8.39,8.39,0,0,0-8.38-8.39H5.89V79.3H7.3a8.39,8.39,0,0,0,8.38-8.39v-1.4h129v1.4a8.39,8.39,0,0,0,8.38,8.39h1.41v43.29H153.1a8.39,8.39,0,0,0-8.38,8.39ZM18.41,129.57H142a11.21,11.21,0,0,1,9.7-9.7V82a11.21,11.21,0,0,1-9.7-9.7H18.41A11.22,11.22,0,0,1,8.7,82v37.85A11.22,11.22,0,0,1,18.41,129.57Z"/><rect class="cls-8" x="28.37" y="70.91" width="2.81" height="60.06"/><rect class="cls-8" x="129.22" y="70.91" width="2.81" height="60.06"/><path class="cls-3" d="M54.21,98.36a7.35,7.35,0,0,1,.46,1.21,9,9,0,0,1,.26,1.25,10.26,10.26,0,0,1-2,.53,13.87,13.87,0,0,1-1.89.12,7.85,7.85,0,0,1-3.14-.58,6.09,6.09,0,0,1-2.26-1.62,6.93,6.93,0,0,1-1.38-2.47,10.1,10.1,0,0,1-.47-3.12,9.83,9.83,0,0,1,.49-3.13,7.27,7.27,0,0,1,1.4-2.5A6.25,6.25,0,0,1,48,86.41a7.33,7.33,0,0,1,3-.59,13.57,13.57,0,0,1,1.87.12,8.41,8.41,0,0,1,1.84.53,4.72,4.72,0,0,1-.25,1.23c-.14.4-.3.81-.47,1.22a9,9,0,0,0-1.3-.36,7.51,7.51,0,0,0-1.35-.11,3.79,3.79,0,0,0-3.11,1.32,6.06,6.06,0,0,0-1.09,3.91q0,5.14,4.37,5.14a7.92,7.92,0,0,0,1.37-.11A10.1,10.1,0,0,0,54.21,98.36Z"/><path class="cls-3" d="M57.23,86.07a10.09,10.09,0,0,1,1.53-.13,10.48,10.48,0,0,1,1.56.13v15.15a9.25,9.25,0,0,1-3.09,0Z"/><path class="cls-3" d="M63.27,86.07a7,7,0,0,1,1.25-.13,7.44,7.44,0,0,1,1.3.13l5.86,9.65V86.07a9.42,9.42,0,0,1,1.46-.13,6.57,6.57,0,0,1,1.26.13v15.15a6.27,6.27,0,0,1-1.22.13,6.71,6.71,0,0,1-1.29-.13L66,91.59v9.63a6.92,6.92,0,0,1-1.37.13,6.72,6.72,0,0,1-1.35-.13Z"/><path class="cls-3" d="M77.35,86.07H86a6.88,6.88,0,0,1,.12,1.29A7,7,0,0,1,86,88.68H80.43V92h4.38a7.55,7.55,0,0,1,.13,1.31,7.2,7.2,0,0,1-.13,1.32H80.43v4h5.66a6.11,6.11,0,0,1,.13,1.28,6.32,6.32,0,0,1-.13,1.33H77.35Z"/><path class="cls-3" d="M89,86.07a11.51,11.51,0,0,1,1.62-.13,10.84,10.84,0,0,1,1.62.13l3.48,8.68,3.58-8.68a8.09,8.09,0,0,1,1.46-.13,9.7,9.7,0,0,1,1.54.13l.71,15.15a9.06,9.06,0,0,1-1.51.13,7.5,7.5,0,0,1-1.42-.13l-.38-10.28-3.07,7.12-.61.07a4.49,4.49,0,0,1-.64,0,4.89,4.89,0,0,1-.54,0,3.72,3.72,0,0,1-.57-.08l-2.87-7.27-.29,10.43a6.68,6.68,0,0,1-1.31.13,7.5,7.5,0,0,1-1.39-.13Z"/><path class="cls-3" d="M109.27,86.07l.85-.09c.26,0,.56,0,.88,0s.56,0,.82,0l.89.09,4.74,15.15a11,11,0,0,1-1.69.13,9,9,0,0,1-1.56-.13l-.84-3h-5l-.86,3a8.22,8.22,0,0,1-1.45.13,8.73,8.73,0,0,1-1.54-.13Zm3.37,9.57-1.74-6.37-1.84,6.37Z"/><path class="cls-3" d="M68,109.5H65.41a2.36,2.36,0,0,1,0-.31c0-.11,0-.22,0-.32s0-.21,0-.31a2.91,2.91,0,0,1,0-.31H72.1a2.72,2.72,0,0,1,0,.3,3,3,0,0,1,0,.31c0,.1,0,.21,0,.33a2.61,2.61,0,0,1,0,.31H69.47v8.85a5,5,0,0,1-.7.05,5.58,5.58,0,0,1-.73-.05Z"/><path class="cls-3" d="M73.69,108.25l.35,0h.73l.35,0v10.1l-.34.05H74l-.34-.05Z"/><path class="cls-3" d="M77.87,108.25l.39,0h.84l.39,0,2.61,6.32,2.63-6.32.35,0h.82l.37,0,.48,10.1-.34.05h-.72l-.33-.05L85,110.5l-2.47,5.76a3.69,3.69,0,0,1-.58,0,3.08,3.08,0,0,1-.53,0l-2.39-5.8-.32,7.89-.33.05h-.67l-.33-.05Z"/><path class="cls-3" d="M89.06,108.25h5.55a5.87,5.87,0,0,1,0,.62c0,.1,0,.21,0,.32a2.51,2.51,0,0,1,0,.31H90.49v2.9h3.29c0,.09,0,.19,0,.3s0,.21,0,.32,0,.21,0,.32,0,.21,0,.31H90.49v3.45h4.23a4,4,0,0,1,0,.62c0,.1,0,.21,0,.32a1.42,1.42,0,0,1,0,.31H89.06Z"/><polygon class="cls-3" points="19.17 83.67 20.45 86.26 23.3 86.67 21.24 88.69 21.73 91.53 19.17 90.19 16.62 91.53 17.11 88.69 15.04 86.67 17.89 86.26 19.17 83.67"/><polygon class="cls-3" points="19.17 97.02 20.45 99.6 23.3 100.02 21.24 102.03 21.73 104.88 19.17 103.53 16.62 104.88 17.11 102.03 15.04 100.02 17.89 99.6 19.17 97.02"/><polygon class="cls-3" points="19.17 110.36 20.45 112.95 23.3 113.36 21.24 115.38 21.73 118.22 19.17 116.88 16.62 118.22 17.11 115.38 15.04 113.36 17.89 112.95 19.17 110.36"/><polygon class="cls-3" points="140.89 83.67 142.16 86.26 145.02 86.67 142.96 88.69 143.44 91.53 140.89 90.19 138.33 91.53 138.82 88.69 136.76 86.67 139.61 86.26 140.89 83.67"/><polygon class="cls-3" points="140.89 97.02 142.16 99.6 145.02 100.02 142.96 102.03 143.44 104.88 140.89 103.53 138.33 104.88 138.82 102.03 136.76 100.02 139.61 99.6 140.89 97.02"/><polygon class="cls-3" points="140.89 110.36 142.16 112.95 145.02 113.36 142.96 115.38 143.44 118.22 140.89 116.88 138.33 118.22 138.82 115.38 136.76 113.36 139.61 112.95 140.89 110.36"/></g></g></g></svg>